<svg viewBox="0 0 768 24" fill="none" xmlns="http://www.w3.org/2000/svg">
<path d="M748.784 0C739.142 0 739.142 9.88235 729.567 9.88235C719.992 9.88235 719.925 0 710.35 0C700.776 0 700.709 9.88235 691.134 9.88235C681.492 9.88235 681.492 0 671.85 0C662.209 0 662.209 9.88235 652.634 9.88235C642.992 9.88235 642.992 0 633.417 0C623.776 0 623.776 9.88235 614.201 9.88235C604.626 9.88235 604.358 0 594.783 0C585.142 0 585.142 9.88235 575.567 9.88235C565.992 9.88235 565.858 0 556.283 0C546.642 0 546.642 9.88235 537.067 9.88235C527.425 9.88235 527.425 0 517.783 0C508.142 0 508.142 9.88235 498.567 9.88235C488.925 9.88235 488.925 0 479.35 0C469.776 0 469.642 9.88235 460 9.88235C450.358 9.88235 450.358 0 440.783 0C431.142 0 431.142 9.88235 421.567 9.88235C411.925 9.88235 411.925 0 402.283 0C392.642 0 392.642 9.88235 383.067 9.88235C373.425 9.88235 373.425 0 363.85 0C354.209 0 354.209 9.88235 344.634 9.88235C334.992 9.88235 334.992 0 325.417 0C315.776 0 315.776 9.88235 306.134 9.88235C296.492 9.88235 296.492 0 286.85 0C277.209 0 277.209 9.88235 267.567 9.88235C257.925 9.88235 257.925 0 248.283 0C238.642 0 238.642 9.88235 229 9.88235C219.358 9.88235 219.358 0 209.717 0C200.075 0 200.075 9.88235 190.433 9.88235C180.791 9.88235 180.791 0 171.15 0C161.508 0 161.508 9.88235 151.933 9.88235C142.291 9.88235 142.291 0 132.65 0C123.008 0 123.008 9.88235 113.366 9.88235C103.724 9.88235 103.724 0 94.0826 0C84.4409 0 84.4409 9.88235 74.7991 9.88235C65.1574 9.88235 65.1574 0 55.5157 0C46.1417 0 46.1417 9.88235 36.5 9.88235C26.8583 9.88235 26.8583 0 17.2835 0C7.70869 0 7.64174 9.88235 -2 9.88235V24H768V9.88235C758.358 9.88235 758.358 0 748.784 0Z" fill="white"/>
</svg>
